<?xml version="1.0" encoding="UTF-8"?>
<svg id="Ebene_1" xmlns="http://www.w3.org/2000/svg" version="1.1" viewBox="0 0 64 64">
  <!-- Generator: Adobe Illustrator 29.1.0, SVG Export Plug-In . SVG Version: 2.1.0 Build 142)  -->
  <path fill="#f2bf36" d="M33,36.9h-10.6l-3.9,12.2c-.3,1-1.2,1.7-2.3,1.7h-4.4c-.1,0-.2,0-.2-.3L23.7,13.5c0-.1.1-.2.3-.2h7.7c.1,0,.2,0,.3.2l10.2,28.1c0,.2,0,.4-.3.4h-6.8c0,0-.2,0-.3-.2l-1.6-4.8h-.2ZM31.3,31.4l-3.5-10.2h-.1l-3.4,10.2h7Z"/>
  <path fill="#fff" d="M52.2,44.1l-5-.2-1.5-4.8h0l-1.7,4.7h-6.2v.2l5.1,2.9-1.6,4.8s0,0,0,0l4.1-2.8,4,3s0,0,0,0l-1.4-4.8,4.1-2.9h0c0,0,.2-.1.2-.1Z"/>
</svg>