<?xml version="1.0" encoding="utf-8"?>
<!-- Generator: Adobe Illustrator 24.2.3, SVG Export Plug-In . SVG Version: 6.00 Build 0)  -->
<svg version="1.1" id="Ebene_1" xmlns="http://www.w3.org/2000/svg" xmlns:xlink="http://www.w3.org/1999/xlink" x="0px" y="0px"
	 viewBox="0 0 16 16" style="enable-background:new 0 0 16 16;" xml:space="preserve">
<style type="text/css">
	.st0{fill:#030305;}
	.st1{opacity:0.4;fill:#EFB72E;enable-background:new    ;}
	.st2{fill:#EFB72E;}
</style>
<path class="st0" d="M0,2v12h12.7V3.8H5.1L4,2H0z"/>
<path class="st1" d="M0,2v12h12.7V3.8H5.1L4,2H0z"/>
<path class="st2" d="M16,6.1L13,14H0l2.5-6.6h4l1.7-1.3C8.2,6.1,16,6.1,16,6.1z"/>
<path id="newspaper" class="st0" d="M7.3,10.3h3c0.1,0,0.2-0.1,0.2-0.1l0.4-1.1c0-0.1,0-0.1-0.1-0.1h-3C7.7,8.9,7.6,9,7.6,9.1
	l-0.4,1.1C7.1,10.2,7.2,10.3,7.3,10.3z M10.1,10.9H9c-0.1,0-0.2,0.1-0.2,0.1l-0.1,0.3c0,0.1,0,0.1,0.1,0.1h1.1
	c0.1,0,0.2-0.1,0.2-0.1l0.1-0.3C10.2,10.9,10.1,10.9,10.1,10.9z M9.7,11.9H8.6c-0.1,0-0.2,0.1-0.2,0.1l-0.1,0.3c0,0.1,0,0.1,0.1,0.1
	h1.1c0.1,0,0.2-0.1,0.2-0.1l0.1-0.3C9.8,12,9.7,11.9,9.7,11.9z M6.5,12.5h1.1c0.1,0,0.2-0.1,0.2-0.1l0.1-0.3c0-0.1,0-0.1-0.1-0.1
	H6.7c-0.1,0-0.2,0.1-0.2,0.1l-0.1,0.3C6.4,12.4,6.4,12.5,6.5,12.5C6.5,12.5,6.5,12.5,6.5,12.5z M12.1,7.9H7.2C7,7.9,6.9,8,6.8,8.1
	c0,0,0,0,0,0l-1.7,4.6C5.1,12.9,4.9,13,4.8,13s-0.2-0.1-0.2-0.3l1.7-4.6C6,8.1,5.6,8.4,5.5,8.7L4,12.8c-0.2,0.5,0.1,0.8,0.5,0.8h4.9
	c0.5,0,1-0.4,1.1-0.8l1.7-4.6C12.3,8,12.3,7.9,12.1,7.9C12.1,7.9,12.1,7.9,12.1,7.9z M10,12.8C10,12.9,9.8,13,9.7,13H5.5
	c0.1-0.1,0.1-0.2,0.1-0.3l1.6-4.4h4.4L10,12.8z M6.9,11.4H8c0.1,0,0.2-0.1,0.2-0.1L8.2,11c0-0.1,0-0.1-0.1-0.1H7.1
	c-0.1,0-0.2,0.1-0.2,0.1l-0.1,0.3C6.7,11.3,6.8,11.4,6.9,11.4L6.9,11.4z"/>
</svg>
