<?xml version="1.0" encoding="UTF-8"?><svg id="Ebene_1" xmlns="http://www.w3.org/2000/svg" viewBox="0 0 16 16"><defs><style>.cls-1{fill:#1b276e;}</style></defs><path class="cls-1" d="M10.14,2.88h-4.29c-1.86,0-2.97,1.11-2.97,2.97v4.29c0,1.86,1.11,2.97,2.97,2.97h4.29c1.86,0,2.97-1.11,2.97-2.97v-4.29c0-1.86-1.11-2.97-2.97-2.97h0ZM6.96,9.48l-1.15,1.15c-.08.08-.17.11-.27.11s-.2-.04-.27-.11l-.38-.38c-.15-.15-.15-.39,0-.54.15-.15.39-.15.54,0l.11.11.88-.88c.15-.15.39-.15.54,0,.15.15.15.39,0,.54ZM6.96,5.9l-1.15,1.15c-.08.08-.17.11-.27.11s-.2-.04-.27-.11l-.38-.38c-.15-.15-.15-.39,0-.54.15-.15.39-.15.54,0l.11.11.88-.88c.15-.15.39-.15.54,0,.15.15.15.39,0,.54h0ZM10.85,10.36h-2.69c-.21,0-.38-.17-.38-.38s.17-.38.38-.38h2.69c.21,0,.38.17.38.38s-.17.38-.38.38ZM10.85,6.78h-2.69c-.21,0-.38-.17-.38-.38s.17-.38.38-.38h2.69c.21,0,.38.17.38.38s-.17.38-.38.38Z"/></svg>