<?xml version="1.0" encoding="utf-8"?>
<!-- Generator: Adobe Illustrator 24.3.0, SVG Export Plug-In . SVG Version: 6.00 Build 0)  -->
<svg version="1.1" id="Ebene_1" xmlns="http://www.w3.org/2000/svg" xmlns:xlink="http://www.w3.org/1999/xlink" x="0px" y="0px"
	 viewBox="0 0 16 16" style="enable-background:new 0 0 16 16;" xml:space="preserve">
<path d="M14.7,16H1.3C0.6,16,0,15.4,0,14.7V1.3C0,0.6,0.6,0,1.3,0h13.4C15.4,0,16,0.6,16,1.3v13.4
	C16,15.4,15.4,16,14.7,16z" fill="#EFB72E"/>
<path d="M9.7,8.9v4.1c0,0.3-0.2,0.5-0.5,0.5H3.3c-0.3,0-0.5-0.2-0.5-0.5V8.9c0-0.3,0.2-0.5,0.5-0.5h1.4v0.2
	c0,0.6,0.6,1.1,1.1,1.1h0.9c0.6,0,1.1-0.6,1.1-1.1V8.5h1.4C9.5,8.5,9.7,8.7,9.7,8.9z M12.6,7.6c-0.7,0.7-1.9,0.7-2.7,0l0,0L7.8,5.4
	c-0.2-0.2-0.6-0.2-0.7,0C7,5.5,6.9,5.6,6.9,5.8v0.9c-0.1,0-0.2,0-0.2,0H5.8c-0.1,0-0.2,0-0.2,0V4.9c0-1.3,1-2.4,2.2-2.4h1.6
	c0.6,0,1.2,0.3,1.7,0.6l1.6,1.7C13.3,5.6,13.3,6.8,12.6,7.6z M12,5.4l-1.7-1.7c-0.2-0.2-0.6-0.4-0.9-0.4H7.8c-0.7,0-1.3,0.6-1.4,1.3
	c0.3-0.2,0.6-0.4,1-0.4c0.4,0,0.7,0.2,1,0.5l2.1,2.1c0.4,0.4,1,0.4,1.4,0C12.3,6.5,12.3,5.9,12,5.4L12,5.4z M5.8,8.9h0.9
	c0.1,0,0.2-0.1,0.2-0.2V7.8c0-0.1-0.1-0.2-0.2-0.2H5.8c-0.1,0-0.2,0.1-0.2,0.2v0.9C5.5,8.8,5.7,8.9,5.8,8.9z" fill="#030305"/>
</svg>
