<?xml version="1.0" encoding="utf-8"?>
<!-- Generator: Adobe Illustrator 24.3.0, SVG Export Plug-In . SVG Version: 6.00 Build 0)  -->
<svg version="1.1" id="Ebene_1" xmlns="http://www.w3.org/2000/svg" xmlns:xlink="http://www.w3.org/1999/xlink" x="0px" y="0px"
	 viewBox="0 0 16 16" style="enable-background:new 0 0 16 16;" xml:space="preserve">
<path d="M14.7,16H1.3C0.6,16,0,15.4,0,14.7V1.3C0,0.6,0.6,0,1.3,0h13.4C15.4,0,16,0.6,16,1.3v13.4
	C16,15.4,15.4,16,14.7,16z" fill="#666668ff"/>
<path d="M13.2,3.8l-1.2,8.2c0,0.1-0.1,0.2-0.3,0.2c0,0,0,0-0.1,0l-3.5-1.5l-1.7,1.7c-0.1,0.1-0.2,0.1-0.3,0
	c0,0-0.1-0.1-0.1-0.2V10l3.9-3.2c0.2-0.2,0.2-0.4,0.1-0.6C9.8,6.1,9.6,6,9.4,6.2c0,0,0,0,0,0L5.3,9.5L3,8.5c-0.1,0-0.2-0.2-0.1-0.3
	c0-0.1,0.1-0.1,0.1-0.1l9.9-4.5c0.1-0.1,0.2,0,0.3,0.1C13.2,3.7,13.2,3.8,13.2,3.8z" fill="#efeeecff"/>
</svg>
