<?xml version="1.0" encoding="UTF-8"?>
<svg id="Ebene_1" xmlns="http://www.w3.org/2000/svg" version="1.1" viewBox="0 0 16 16">
  <!-- Generator: Adobe Illustrator 29.8.3, SVG Export Plug-In . SVG Version: 2.1.1 Build 3)  -->
  <defs>
    <style>
      .st0 {
        fill: #030305;
      }

      .st1 {
        fill: #efb72e;
      }
    </style>
  </defs>
  <path class="st1" d="M14.7,16H1.3c-.7,0-1.3-.6-1.3-1.3V1.3C0,.6.6,0,1.3,0h13.4c.7,0,1.3.6,1.3,1.3v13.4c0,.7-.6,1.3-1.3,1.3Z"/>
  <g>
    <path class="st0" d="M3.5,7.6c-.1-.1-.1-.3,0-.5l2.5-2.5c.3-.3.7-.4,1.1-.2l2,.9c.1,0,.3,0,.4,0l2.5-2.5c.1-.1.3-.1.5,0,.1.1.1.3,0,.5l-2.5,2.5c-.3.3-.7.4-1.1.2l-2-.9c-.1,0-.3,0-.4,0l-2.5,2.5c0,0-.1,0-.2,0s-.2,0-.2,0Z"/>
    <g>
      <path class="st0" d="M7.6,8.6v4.1c0,.4-.3.7-.7.7h-.7c-.4,0-.7-.3-.7-.7v-4.1c0-.4.3-.7.7-.7h.7c.4,0,.7.3.7.7Z"/>
      <path class="st0" d="M13.2,6.3v6.4c0,.4-.3.7-.7.7h-.7c-.4,0-.7-.3-.7-.7v-6.4c0-.4.3-.7.7-.7h.7c.4,0,.7.3.7.7Z"/>
      <path class="st0" d="M4.8,11.6v1.1c0,.4-.3.7-.7.7h-.7c-.4,0-.7-.3-.7-.7v-1.1c0-.4.3-.7.7-.7h.7c.4,0,.7.3.7.7Z"/>
      <path class="st0" d="M10.4,9.7v3c0,.4-.3.7-.7.7h-.7c-.4,0-.7-.3-.7-.7v-3c0-.4.3-.7.7-.7h.7c.4,0,.7.3.7.7Z"/>
    </g>
  </g>
</svg>