<?xml version="1.0" encoding="utf-8"?>
<!-- Generator: Adobe Illustrator 24.3.0, SVG Export Plug-In . SVG Version: 6.00 Build 0)  -->
<svg version="1.1" id="Ebene_1" xmlns="http://www.w3.org/2000/svg" xmlns:xlink="http://www.w3.org/1999/xlink" x="0px" y="0px"
	 viewBox="0 0 16 16" style="enable-background:new 0 0 16 16;" xml:space="preserve">
<path d="M14.7,16H1.3C0.6,16,0,15.4,0,14.7V1.3C0,0.6,0.6,0,1.3,0h13.4C15.4,0,16,0.6,16,1.3v13.4
	C16,15.4,15.4,16,14.7,16z" fill="#EFB72E"/>
<path id="circle-empty-check" d="M8,2.8c-2.9,0-5.3,2.4-5.3,5.3s2.4,5.3,5.3,5.3s5.3-2.4,5.3-5.3
	C13.3,5.2,10.9,2.8,8,2.8z M8,12.1c-2.2,0-4-1.8-4-4s1.8-4,4-4s4,1.8,4,4C11.9,10.3,10.2,12.1,8,12.1z M10.7,6.5
	c0.1,0.1,0.1,0.2,0,0.3l-3,3.5c-0.2,0.2-0.4,0.2-0.6,0.1c0,0,0,0,0,0L5.3,8.4c-0.1-0.1-0.1-0.2,0-0.3l0.5-0.5c0.1-0.1,0.2-0.1,0.3,0
	l1.1,0.7L9.9,6c0.1-0.1,0.2-0.1,0.3,0L10.7,6.5z" fill="#030305"/>
</svg>
