<?xml version="1.0" encoding="utf-8"?>
<!-- Generator: Adobe Illustrator 25.3.1, SVG Export Plug-In . SVG Version: 6.00 Build 0)  -->
<svg version="1.1" id="Ebene_1" xmlns="http://www.w3.org/2000/svg" xmlns:xlink="http://www.w3.org/1999/xlink" x="0px" y="0px"
	 viewBox="0 0 16 16" style="enable-background:new 0 0 16 16;" xml:space="preserve">
<path fill="#030305" d="M14.7,16H1.3C0.6,16,0,15.4,0,14.7V1.3C0,0.6,0.6,0,1.3,0h13.4C15.4,0,16,0.6,16,1.3v13.4
	C16,15.4,15.4,16,14.7,16z"/>
<path id="user-group" fill="#EFB72E" d="M11,9.8h-0.5c0,0-0.1,0-0.1,0c-0.1-0.1-0.3-0.3-0.5-0.4l0,0c0,0,0-0.1,0-0.1c0,0,0,0,0-0.1
	l0.2-0.7c0.2-0.2,0.4-0.4,0.5-0.6l0.1-0.2c0.2-0.4,0.1-0.8-0.2-1.1V6c0.7-0.2,1.4,0.2,1.6,0.9c0,0.1,0,0.2,0,0.4v0.7
	c0.1,0.1,0.1,0.2,0.1,0.2L12,8.5c-0.1,0.1-0.2,0.2-0.3,0.3l-0.1,0.4C11.6,9.6,11.4,9.8,11,9.8z M5.6,9.8c0.2-0.1,0.3-0.3,0.5-0.4
	l0,0c0,0,0-0.1,0-0.1c0,0,0,0,0-0.1L6,8.4C5.8,8.3,5.6,8,5.5,7.8L5.4,7.6C5.3,7.2,5.3,6.8,5.6,6.4V6C4.9,5.8,4.2,6.2,4,6.8
	C4,7,4,7.1,4,7.2v0.7C3.9,8,3.9,8.1,3.9,8.2L4,8.5c0.1,0.1,0.2,0.2,0.3,0.3l0.1,0.4c0,0.3,0.3,0.6,0.6,0.6L5.6,9.8
	C5.5,9.8,5.6,9.8,5.6,9.8z M12.9,10.2l-0.7-0.5c-0.2,0.4-0.6,0.7-1,0.7c0.1,0.2,0.2,0.4,0.2,0.7h1.5c0.1,0,0.2-0.1,0.2-0.2v-0.5
	C13.1,10.4,13,10.3,12.9,10.2z M3.9,9.7l-0.7,0.5C3,10.3,3,10.4,3,10.5v0.5c0,0.1,0.1,0.2,0.2,0.2h1.5c0-0.2,0.1-0.5,0.2-0.7
	C4.4,10.4,4,10.1,3.9,9.7z M10.5,10.7c-0.1-0.1-0.6-0.5-1-0.8c-0.3,0.4-0.8,0.6-1.2,0.6H7.7c-0.5,0-0.9-0.2-1.2-0.6
	c-0.4,0.3-0.8,0.7-1,0.8c-0.2,0.1-0.3,0.3-0.3,0.5v0.4c0,0.1,0.1,0.2,0.2,0.2h5.2c0.1,0,0.2-0.1,0.2-0.2v-0.4
	C10.8,11,10.7,10.8,10.5,10.7z M6.1,7.6C6.2,7.8,6.4,7.9,6.6,8l0.2,1c0.1,0.4,0.5,0.8,1,0.8h0.6c0.5,0,0.9-0.3,1-0.8l0.2-1
	c0.2-0.1,0.3-0.3,0.4-0.5L10,7.3c0.1-0.2,0-0.5-0.2-0.6c0,0,0,0,0,0V5.9c0-1-0.6-1.6-1.8-1.6S6.2,4.9,6.2,5.9v0.9
	C6,6.8,5.9,7.1,6,7.3c0,0,0,0,0,0L6.1,7.6z"/>
</svg>
