<?xml version="1.0" encoding="utf-8"?>
<!-- Generator: Adobe Illustrator 24.2.3, SVG Export Plug-In . SVG Version: 6.00 Build 0)  -->
<svg version="1.1" id="Ebene_1" xmlns="http://www.w3.org/2000/svg" xmlns:xlink="http://www.w3.org/1999/xlink" x="0px" y="0px"
	 viewBox="0 0 16 16" style="enable-background:new 0 0 16 16;" xml:space="preserve">
<style type="text/css">
	.st0{fill:#EFB72E;}
	.st1{fill:#030305;}
</style>
<path class="st0" d="M14.7,16H1.3C0.6,16,0,15.4,0,14.7V1.3C0,0.6,0.6,0,1.3,0h13.4C15.4,0,16,0.6,16,1.3v13.4
	C16,15.4,15.4,16,14.7,16z"/>
<path id="newspaper" class="st1" d="M6.3,7.3h5.4C11.8,7.3,12,7.1,12,7V5c0-0.1-0.1-0.2-0.2-0.2H6.3C6.1,4.8,6,4.9,6,5v2
	C6,7.1,6.1,7.3,6.3,7.3z M11.7,8.2h-2c-0.1,0-0.2,0.1-0.2,0.2V9c0,0.1,0.1,0.2,0.2,0.2h2C11.8,9.2,12,9.1,12,9V8.5
	C12,8.4,11.8,8.2,11.7,8.2z M11.7,10.2h-2c-0.1,0-0.2,0.1-0.2,0.2V11c0,0.1,0.1,0.2,0.2,0.2h2c0.1,0,0.2-0.1,0.2-0.2v-0.5
	C12,10.3,11.8,10.2,11.7,10.2z M6.3,11.2h2c0.1,0,0.2-0.1,0.2-0.2v-0.5c0-0.1-0.1-0.2-0.2-0.2h-2c-0.1,0-0.2,0.1-0.2,0.2V11
	C6,11.1,6.1,11.2,6.3,11.2L6.3,11.2z M13.4,2.8H4.5C4.3,2.8,4,3,4,3.3l0,0v8.4c0,0.3-0.2,0.5-0.5,0.5S3.1,12,3.1,11.7V3.3
	c-0.5,0-1,0.4-1,1v7.4c0,0.8,0.7,1.5,1.5,1.5h8.9c0.8,0,1.5-0.7,1.5-1.5V3.3C13.9,3,13.7,2.8,13.4,2.8L13.4,2.8z M12.9,11.7
	c0,0.3-0.2,0.5-0.5,0.5H4.9C5,12,5,11.9,5,11.7V3.8h7.9V11.7z M6.3,9.2h2c0.1,0,0.2-0.1,0.2-0.2V8.5c0-0.1-0.1-0.2-0.2-0.2h-2
	C6.1,8.2,6,8.4,6,8.5V9C6,9.1,6.1,9.2,6.3,9.2L6.3,9.2z"/>
</svg>
