<svg xmlns="http://www.w3.org/2000/svg" viewBox="0 0 32 32">
    <path d="M15.977,24.64875c-.0549.06316-.10647.12651-.16218.186a12.76258,12.76258,0,0,1-2.39357,2.06307,6.43318,6.43318,0,0,1-2.53729,1.02446,5.04768,5.04768,0,0,1-5.08579-2.041,4.80162,4.80162,0,0,1-.92591-2.35955,5.518,5.518,0,0,1,.50763-3.00012c.76385-1.67628,1.52468-3.35457,2.32723-5.01244,1.1434-2.362,2.31744-4.70922,3.49093-7.0565.39042-.78093.80113-1.55307,1.2356-2.31027a4.1312,4.1312,0,0,1,2.13293-1.87353A3.97626,3.97626,0,0,1,18.931,5.289a6.63505,6.63505,0,0,1,1.05888,1.6c1.32266,2.624,2.6573,5.24235,3.949,7.88161.89965,1.8382,1.73935,3.70581,2.60017,5.5629a6.51673,6.51673,0,0,1,.57377,1.84218,5.10008,5.10008,0,0,1-2.70044,5.254,4.95767,4.95767,0,0,1-1.73579.53253,6.01577,6.01577,0,0,1-3.83008-.89968,12.239,12.239,0,0,1-2.65335-2.216c-.05-.053-.10117-.1048-.15257-.15639A.55987.55987,0,0,0,15.977,24.64875Zm.12962-11.86934c.14744.015.40306.025.65252.06942a3.88161,3.88161,0,0,1,2.49831,1.48137,4.22867,4.22867,0,0,1,.74467,3.29884,8.11656,8.11656,0,0,1-.71067,2.28332A16.80353,16.80353,0,0,1,17.158,23.26922c-.17839.22519-.184.22612-.002.42325a11.60535,11.60535,0,0,0,2.24556,1.96341,4.99828,4.99828,0,0,0,2.32171.84392,3.61751,3.61751,0,0,0,3.94558-3.43793,4.04071,4.04071,0,0,0-.3957-1.89165q-.7252-1.61886-1.47451-3.22689-2.37276-5.08285-4.96982-10.05506A10.46128,10.46128,0,0,0,17.99367,6.499a2.45968,2.45968,0,0,0-2.83809-.86077,2.69545,2.69545,0,0,0-1.46645,1.30706c-.5219.94836-1.02332,1.90841-1.5155,2.87265q-2.19654,4.30323-4.23616,8.68329c-.43456.93655-.86519,1.87534-1.27384,2.82336a3.80223,3.80223,0,0,0-.2861,2.19912,3.62286,3.62286,0,0,0,4.14254,2.94991,4.99866,4.99866,0,0,0,1.833-.66986,11.07822,11.07822,0,0,0,2.481-2.10285c.18977-.20423.18381-.20675.01291-.42267a15.94639,15.94639,0,0,1-2.31613-3.76815,6.41728,6.41728,0,0,1-.551-3.30851,3.72982,3.72982,0,0,1,.989-2.14443A4.1364,4.1364,0,0,1,16.10659,12.77941ZM15.98,22.31155c.03539-.01678.04612-.01852.05123-.02481.05444-.06705.10929-.13384.16159-.20255a14.17229,14.17229,0,0,0,1.88475-3.12179,4.9713,4.9713,0,0,0,.46017-2.57139,2.24678,2.24678,0,0,0-.74606-1.46035,2.65952,2.65952,0,0,0-2.40917-.59253,2.39276,2.39276,0,0,0-1.95392,2.42227,5.48745,5.48745,0,0,0,.456,2.11709,13.37313,13.37313,0,0,0,1.68508,2.89266C15.7037,21.95224,15.84269,22.13064,15.98,22.31155Z" fill="#262626"/>
</svg>
