<svg xmlns="http://www.w3.org/2000/svg" viewBox="0 0 32 32">
    <path id="blogger" d="M15.96824,17.85737c-2.8886.00226-2.99169.00936-3.22658.22192a.83116.83116,0,0,0,.22338,1.38647,17.49087,17.49087,0,0,0,3.014.0661l2.5686-.03007.49282-.08015a.81846.81846,0,0,0,.16556-1.30477C18.92422,17.8538,18.93968,17.855,15.96824,17.85737ZM24.72727,4H7.27273A3.27272,3.27272,0,0,0,4,7.27273V24.72727A3.27272,3.27272,0,0,0,7.27273,28H24.72727A3.27272,3.27272,0,0,0,28,24.72727V7.27273A3.27272,3.27272,0,0,0,24.72727,4ZM23.40206,17.36124a10.41684,10.41684,0,0,1-.12352,2.5724,4.52089,4.52089,0,0,1-1.16688,2.0613A4.44137,4.44137,0,0,1,19.396,23.384c-.62.08456-6.67316.06246-7.16381-.02623A4.6035,4.6035,0,0,1,9.48191,21.5989a4.01016,4.01016,0,0,1-.71031-1.36816c-.21028-.667-.23351-1.16136-.21247-4.52744a23.16821,23.16821,0,0,1,.10167-3.44624,4.72958,4.72958,0,0,1,2.85964-3.34091c.78316-.312,1.29379-.35915,3.5942-.332a11.66065,11.66065,0,0,1,2.09918.09695,5.06,5.06,0,0,1,2.17336,1.34379,4.27368,4.27368,0,0,1,1.35765,3.02863c.00086.573.09275.78409.42627.97958.2102.12318.28478.1361.95088.16566a4.18321,4.18321,0,0,1,.82864.08976.95241.95241,0,0,1,.41328.6147A22.22118,22.22118,0,0,1,23.40206,17.36124Zm-10.72-4.56925c.25892-.2614.3305-.27135,1.95124-.27135,1.455,0,1.5039.00318,1.71762.11114a.72971.72971,0,0,1,.44307.72626.78194.78194,0,0,1-.40717.71618c-.151.09566-.24117.10159-1.66674.11a15.90474,15.90474,0,0,1-1.686-.04046A.84246.84246,0,0,1,12.68207,12.792Z" fill="#262626"/>
</svg>
