<svg xmlns="http://www.w3.org/2000/svg" viewBox="0 0 32 32">
    <path id="creative-cloud" d="M19.35529,6.72137a9.276,9.276,0,0,1,0,18.55174H11.14187a7.77311,7.77311,0,0,1,0-15.546,7.34218,7.34218,0,0,1,1.31017.1046,9.227,9.227,0,0,1,6.90325-3.11031m0-.40736a9.62324,9.62324,0,0,0-7.05738,3.07177,8.166,8.166,0,0,0-1.156-.08257,8.11385,8.11385,0,0,0-5.7582,2.39466,8.152,8.152,0,0,0,0,11.5274,8.17233,8.17233,0,0,0,5.7582,2.46072h8.21342a9.57265,9.57265,0,0,0,3.7544-.79822A9.71343,9.71343,0,0,0,29,15.96421,9.66442,9.66442,0,0,0,23.10969,7.0737a9.65309,9.65309,0,0,0-3.7544-.75969Zm-5.538,15.16067a7.81674,7.81674,0,1,0,.18717-11.23563,7.635,7.635,0,0,1,1.34871.69913,6.40912,6.40912,0,1,1-.53947,9.54561L11.07034,16.7294a.70461.70461,0,0,0-1.00742.9854Zm3.391-4.80584a.7027.7027,0,1,0,1.00743-.97988L15.3697,12.77133a6.3427,6.3427,0,1,0-4.23332,11.0815h3.303a9.59941,9.59941,0,0,1-1.73957-1.45332L11.13638,22.361a4.90768,4.90768,0,1,1,3.22592-8.60976Z" fill="#262626"/>
</svg>
