<?xml version="1.0" encoding="UTF-8"?>
<svg id="social-logos" xmlns="http://www.w3.org/2000/svg" viewBox="0 0 32 32">
  <path d="m16,4c-6.63,0-12,5.37-12,12s4.86,11.46,11.03,11.96v.04h.97c6.63,0,12-5.37,12-12s-5.37-12-12-12Zm9.91,10.32c-1.52-.21-3.09-.15-4.62.18-.3-.85-.69-1.66-1.14-2.43,1.26-.73,2.41-1.64,3.4-2.71,1.21,1.37,2.05,3.08,2.36,4.96Zm-3.78-6.29c-.89.96-1.93,1.78-3.07,2.42-.78-1-1.69-1.9-2.7-2.67-.72-.56-1.55-1.09-2.36-1.51-.05-.02-.11-.05-.19-.09.7-.16,1.44-.24,2.19-.24,2.31,0,4.43.78,6.13,2.09Zm-10.99-.83s0,0,0,0c.17.05.32.1.47.16.89.32,1.68.72,2.47,1.21.17.11.34.23.52.35,0,0,0,0,0,0,.18.12.4.3.59.44.75.57,1.42,1.22,2.03,1.94-.64.24-1.31.42-1.99.54h0c-1.48.27-2.99.27-4.46,0h0s0,0,0,0c-1.16-.21-2.29-.58-3.34-1.11.91-1.47,2.18-2.69,3.7-3.53Zm-5.19,8.79c0-1.24.22-2.42.63-3.52,1.22.61,2.52,1.04,3.85,1.28,1.7.31,3.45.3,5.15,0h0c.96-.17,1.9-.45,2.81-.82.4.67.75,1.38,1.02,2.11-4.04,1.46-7.57,4.74-8.99,9.31-2.7-1.8-4.47-4.88-4.47-8.36Zm10.05,10.05c-1.35,0-2.64-.27-3.82-.75,1.14-4.11,4.23-7.06,7.77-8.38.61,2.96.17,6.14-1.3,8.78-.75.2-1.54.33-2.35.35h-.3Zm5.3-1.51c.93-2.6,1.11-5.46.53-8.16,1.41-.28,2.84-.31,4.22-.07-.11,3.47-1.98,6.5-4.75,8.23Z" fill="#262626" fill-rule="evenodd" stroke-width="0"/>
</svg>