<svg xmlns="http://www.w3.org/2000/svg" viewBox="0 0 32 32">
    <path id="myspace" d="M20.27853,12.60332a4.006,4.006,0,1,1,4.00693,3.99084A3.999,3.999,0,0,1,20.27853,12.60332Zm-5.017,4.73012a3.59214,3.59214,0,1,0-3.60571-3.59181A3.59917,3.59917,0,0,0,15.26151,17.33344Zm-8.18327.665A3.23215,3.23215,0,1,0,3.83332,14.767,3.23819,3.23819,0,0,0,7.07824,17.99848Zm.00012.73807a3.66609,3.66609,0,0,0-3.56611,3.67182V23.6642h0a.32448.32448,0,0,0,.324.3233h6.48317a.32462.32462,0,0,0,.32466-.3233h0V22.40837A3.6658,3.6658,0,0,0,7.07836,18.73655Zm8.183-.58415a4.0739,4.0739,0,0,0-3.96267,4.08019v1.39548h0a.36068.36068,0,0,0,.36016.35943h7.204a.3607.3607,0,0,0,.36092-.35943h0V22.23259A4.07371,4.07371,0,0,0,15.26138,18.1524Zm9.0236-.64809a4.52628,4.52628,0,0,0-4.40277,4.53355v1.55036h0a.40073.40073,0,0,0,.40024.39928H28.2865a.40094.40094,0,0,0,.40125-.39928h0V22.03786A4.52612,4.52612,0,0,0,24.285,17.50431Z" fill="#262626"/>
</svg>
