<?xml version="1.0" encoding="UTF-8"?>
<svg id="social-logos" xmlns="http://www.w3.org/2000/svg" viewBox="0 0 32 32">
  <path d="m25.87,11.25c.04,1.61-.59,3.18-1.55,4.45-.06.08-.13.16-.2.24-.63.71-1.45,1.24-2.32,1.57-1.14.43-2.38.5-3.55.82-2.79.64-3.06,3.47-4,5.71-.77,2.13-2.68,3.8-4.92,2.48-.19-.13-.36-.27-.53-.43-1.5-1.54-1.77-3.82-2.16-5.85-.26-1.58-.48-3.17-.53-4.77-.25-4.27,1.24-7.62,5.35-9.28,1.92-.85,4-1.34,6.1-1.19,1.97.19,4.01.59,5.65,1.73,1.47,1.02,2.74,2.63,2.67,4.5,0,0,0,0,0,0Z" fill="#262626" stroke-width="0"/>
</svg>