<svg xmlns="http://www.w3.org/2000/svg" viewBox="0 0 32 32">
    <path id="quora" d="M17.68431,23.46015c-.85946-1.69159-1.86769-3.4002-3.83441-3.4002a2.627,2.627,0,0,0-1.09606.21957l-.66812-1.33714a5.85632,5.85632,0,0,1,3.821-1.25245,5.56764,5.56764,0,0,1,5.0528,2.88488,13.52715,13.52715,0,0,0,.93878-5.55781c0-5.7729-1.80541-8.7371-6.0225-8.7371-4.1557,0-5.95124,2.9642-5.95124,8.7371,0,5.74243,1.79554,8.67616,5.95124,8.67616a6.42154,6.42154,0,0,0,1.80854-.233Zm1.03019,2.01466a11.04691,11.04691,0,0,1-2.83873.3791A10.93693,10.93693,0,0,1,4.92415,15.017a10.97226,10.97226,0,0,1,21.944,0,10.54988,10.54988,0,0,1-4.14808,8.47093c.794,1.18971,1.61137,1.97971,2.74955,1.97971A1.79876,1.79876,0,0,0,27.29655,23.755H28.9142a4.78029,4.78029,0,0,1-4.92778,5.16841c-2.73835,0-4.18617-1.58718-5.27192-3.4486Z" fill="#262626"/>
</svg>
