<svg xmlns="http://www.w3.org/2000/svg" viewBox="0 0 32 32">
    <path id="squarespace" d="M24.86055,15.376a.882.882,0,0,0-1.248,0L15.376,23.61253a3.004,3.004,0,0,1-4.2432.0006.88249.88249,0,0,0-1.248,1.248,4.77076,4.77076,0,0,0,6.73927-.0006L24.86055,16.624A.882.882,0,0,0,24.86055,15.376Zm2.74592-2.74592a4.77077,4.77077,0,0,0-6.73927.00061l-8.23653,8.23654a.88249.88249,0,0,0,1.248,1.248l8.23654-8.23654a3.00039,3.00039,0,1,1,4.24319,4.2432l-6.62591,6.62591a.88249.88249,0,0,0,1.248,1.248l6.62591-6.62591A4.77147,4.77147,0,0,0,27.60647,12.63006ZM22.11524,7.13884a4.77075,4.77075,0,0,0-6.73926.00061L7.13944,15.376a.88249.88249,0,0,0,1.248,1.248L16.624,8.38748a3.004,3.004,0,0,1,4.24319-.00061.88249.88249,0,0,0,1.248-1.248ZM19.36933,9.88476a.882.882,0,0,0-1.248,0L9.88476,18.12129a3.00039,3.00039,0,1,1-4.2432-4.24319l6.62592-6.62592a.88249.88249,0,1,0-1.248-1.248L4.39353,12.63006a4.76538,4.76538,0,1,0,6.73926,6.73927l8.23654-8.23653A.882.882,0,0,0,19.36933,9.88476Z" fill="#262626"/>
</svg>
