<?xml version="1.0" encoding="UTF-8"?>
<svg id="social-logos" xmlns="http://www.w3.org/2000/svg" viewBox="0 0 32 32">
  <path d="m26.47917,9.636v3.95604c-2.05202,0-3.95207-.65603-5.50389-1.76986v8.03931c0,4.01427-3.26545,7.27972-7.27972,7.27972-1.55183,0-2.99021-.48936-4.17305-1.31898-1.8774-1.31802-3.10763-3.49733-3.10763-5.96073,0-4.01517,3.26545-7.28068,7.28068-7.28068.3325,0,.66.02667.98064.07105v4.03793c-.31076-.09767-.63929-.15391-.98064-.15391-1.83399,0-3.3256,1.49167-3.3256,3.3256,0,2.05518,1.38004,3.32464,3.3256,3.32464,1.80444,0,3.31777-1.46738,3.31777-3.19933l.00686-15.85372h3.95508c0,.34334.02806.67979.09369,1.0043.38937,1.92512,2.0977,4.50846,5.4102,4.49863Z" fill="#262626"/>
</svg>