<?xml version="1.0" encoding="UTF-8"?>
<svg xmlns="http://www.w3.org/2000/svg" viewBox="0 0 32 32">
    <path id="tripadvisor" d="M11.6861,16.39671c0,1.30955-1.06158,2.37113-2.37109,2.37113s-2.37113-1.06158-2.37113-2.37113,1.06158-2.37113,2.37113-2.37113,2.37109,1.06158,2.37109,2.37113m10.99627-2.37113c-1.30955,0-2.37113,1.06158-2.37113,2.37113s1.06158,2.37113,2.37113,2.37113,2.37113-1.06158,2.37113-2.37113-1.06158-2.37113-2.37113-2.37113m6.68634,2.37113c0,3.69131-2.99503,6.68368-6.68634,6.68368-1.75342,0-3.34878-.67551-4.54091-1.78017l-2.14144,2.32999-2.14269-2.33128c-1.19225,1.10542-2.7882,1.78146-4.54232,1.78146-3.69131,0-6.68368-2.99237-6.68368-6.68368,0-1.95659,.84021-3.71724,2.18009-4.93961l-2.18694-2.3796H7.48531c2.42406-1.65573,5.34721-2.62437,8.51342-2.62437,3.17045,0,6.10112,.96722,8.5285,2.62437h4.84829l-2.1869,2.3796c1.33984,1.22238,2.18008,2.98302,2.18008,4.93961m-15.53053,0c0-2.4981-2.02506-4.52321-4.52316-4.52321s-4.52321,2.02511-4.52321,4.52321,2.02511,4.52321,4.52321,4.52321,4.52316-2.0251,4.52316-4.52321m7.18127-6.75265c-1.54513-.64634-3.24104-1.00403-5.02072-1.00403-1.77901,0-3.47417,.35782-5.01889,1.00379,2.85518,1.09208,5.02018,3.64606,5.02018,6.62264,0-2.97633,2.16463-5.53015,5.01943-6.6224m6.18613,6.75265c0-2.4981-2.02511-4.52321-4.52321-4.52321s-4.52321,2.02511-4.52321,4.52321,2.02515,4.52321,4.52321,4.52321,4.52321-2.0251,4.52321-4.52321" fill="#262626"/>
</svg>