<svg xmlns="http://www.w3.org/2000/svg" viewBox="0 0 32 32">
    <path id="vk" d="M19.68,4H12.32C5.6,4,4,5.6,4,12.32v7.36C4,26.4,5.6,28,12.32,28h7.36C26.4,28,28,26.4,28,19.68V12.32C28,5.6,26.4,4,19.68,4Zm3.69685,17.125h-1.75c-.66742,0-.863-.53231-2.04958-1.71883C18.539,18.405,18.094,18.2752,17.8345,18.2752c-.35226,0-.45763.09978-.45763.59979v1.56938c0,.43063-.13761.68062-1.25.68062a6.81794,6.81794,0,0,1-5.33756-3.202c-2.16915-3.04055-2.76244-5.33949-2.76244-5.803,0-.25955.1-.49492.6-.49492h1.75c.44725,0,.61549.19575.78323.68035.85588,2.49323,2.299,4.67212,2.89225,4.67212.22249,0,.32453-.10247.32453-.66747V13.73292c-.065-1.18656-.6953-1.28383-.6953-1.70568a.42187.42187,0,0,1,.44529-.40226h2.75c.37084,0,.5.19832.5.6433v3.467c0,.37074.161.50051.27224.50051.22249,0,.40791-.12977.81577-.53763a14.63906,14.63906,0,0,0,2.15066-3.57824.75574.75574,0,0,1,.76135-.49492h1.75c.52923,0,.64042.27249.52923.6433a21.91449,21.91449,0,0,1-2.35462,4.02316c-.18539.29663-.25954.445,0,.77863.18542.25961.79722.7787,1.20513,1.26076a7.51442,7.51442,0,0,1,1.47605,2.05078C24.12685,20.875,23.87686,21.125,23.37685,21.125Z" fill="#262626"/>
</svg>
