<svg xmlns="http://www.w3.org/2000/svg" viewBox="0 0 32 32">
    <path id="yelp" d="M8.25675,14.73858l4.83275,2.35678a1.10782,1.10782,0,0,1-.21756,2.07064L7.65518,20.46676a1.11013,1.11013,0,0,1-1.37009-.95292,9.53789,9.53789,0,0,1,.4359-4.13531A1.10784,1.10784,0,0,1,8.25675,14.73858Zm2.13016,11.60353a9.62521,9.62521,0,0,0,3.85212,1.559,1.10924,1.10924,0,0,0,1.29249-1.05458l.18763-5.37484a1.10782,1.10782,0,0,0-1.93045-.77986l-3.597,3.99536A1.10848,1.10848,0,0,0,10.38691,26.34211ZM17.43838,21.011l2.84994,4.56089a1.10921,1.10921,0,0,0,1.64662.267,9.62565,9.62565,0,0,0,2.55654-3.27617A1.1085,1.1085,0,0,0,23.833,21.032l-5.11274-1.66156A1.10782,1.10782,0,0,0,17.43838,21.011Zm7.19125-6.41259a9.53862,9.53862,0,0,0-2.44517-3.36335,1.10787,1.10787,0,0,0-1.65.21367L17.5276,15.90619a1.10782,1.10782,0,0,0,1.22372,1.68446l5.16824-1.48188A1.1102,1.1102,0,0,0,24.62963,14.59844ZM11.84312,3.56757a15.47132,15.47132,0,0,0-2.65671.97868,1.10759,1.10759,0,0,0-.4797,1.55343L13.75813,14.849a1.10781,1.10781,0,0,0,2.06721-.55388V4.19226A1.1076,1.1076,0,0,0,14.63321,3.0868,15.469,15.469,0,0,0,11.84312,3.56757Z" fill="#262626"/>
</svg>
